<svg xmlns="http://www.w3.org/2000/svg" viewBox="0 0 64 64"><path d="M58 6h-1V4a4 4 0 0 0-8 0v2h-6V4a4 4 0 0 0-8 0v2h-6V4a4 4 0 0 0-8 0v2h-6V4a4 4 0 0 0-8 0v2H6a6.006 6.006 0 0 0-6 6v38a6.006 6.006 0 0 0 6 6h22a1 1 0 0 0 0-2H6a4 4 0 0 1-4-4V20h60v30a4 4 0 0 1-4 4H36a1 1 0 0 0 0 2h22a6.006 6.006 0 0 0 6-6V12a6.006 6.006 0 0 0-6-6zm-7-2a2 2 0 0 1 4 0v6a2 2 0 0 1-4 0zM37 4a2 2 0 0 1 4 0v6a2 2 0 0 1-4 0zM23 4a2 2 0 0 1 4 0v6a2 2 0 0 1-4 0zM9 4a2 2 0 0 1 4 0v6a2 2 0 0 1-4 0zM2 18v-6a4 4 0 0 1 4-4h1v2a4 4 0 0 0 8 0V8h6v2a4 4 0 0 0 8 0V8h6v2a4 4 0 0 0 8 0V8h6v2a4 4 0 0 0 8 0V8h1a4 4 0 0 1 4 4v6z" style="fill:#202023"/><path d="M44 50a1 1 0 0 0 1-1 13 13 0 0 0-26 0 1 1 0 0 0 1 1h11v10a2 2 0 0 1-4 0v-1a1 1 0 0 0-2 0v1a4 4 0 0 0 8 0V50zM32 38a11.015 11.015 0 0 1 10.955 10h-21.91A11.015 11.015 0 0 1 32 38zM31 33a1 1 0 0 0 2 0v-2a1 1 0 0 0-2 0zM36 30a1 1 0 0 0 1-1v-5a1 1 0 0 0-2 0v5a1 1 0 0 0 1 1zM35 34a1 1 0 0 0 2 0v-2a1 1 0 0 0-2 0zM32 29a1 1 0 0 0 1-1v-4a1 1 0 0 0-2 0v4a1 1 0 0 0 1 1zM43 40a1 1 0 0 0 2 0v-2a1 1 0 0 0-2 0zM40 32a1 1 0 0 0 1-1v-7a1 1 0 0 0-2 0v7a1 1 0 0 0 1 1z" style="fill:#202023"/><path d="M39 36a1 1 0 0 0 2 0v-2a1 1 0 0 0-2 0zM44 36a1 1 0 0 0 1-1V24a1 1 0 0 0-2 0v11a1 1 0 0 0 1 1zM28 30a1 1 0 0 0 1-1v-5a1 1 0 0 0-2 0v5a1 1 0 0 0 1 1zM27 34a1 1 0 0 0 2 0v-2a1 1 0 0 0-2 0zM19 40a1 1 0 0 0 2 0v-2a1 1 0 0 0-2 0zM24 32a1 1 0 0 0 1-1v-7a1 1 0 0 0-2 0v7a1 1 0 0 0 1 1zM23 36a1 1 0 0 0 2 0v-2a1 1 0 0 0-2 0zM20 36a1 1 0 0 0 1-1V24a1 1 0 0 0-2 0v11a1 1 0 0 0 1 1z" style="fill:#202023"/></svg>